# xmcd CD database file
#
# Track frame offsets:
#	150
#	13454
#	31973
#	50014
#	68400
#	91735
#	112847
#	131475
#	150762
#	168088
#	182306
#	199214
#	215488
#	234049
#	251750
#	272557
#	291333
#
# Disc length: 4140 seconds
#
# Revision: 0
# Processed by: cddbd v1.5.2PL0 Copyright (c) Steve Scherf et al.
# Submitted via: jetAudio 7
#
DISCID=d9102a11
DTITLE=Garion - 가리온2
DYEAR=1900
DGENRE=Hip Hop
TTITLE0=다만, 가리온
TTITLE1=약속의 장소
TTITLE2=산다는 게
TTITLE3=복마전
TTITLE4=객석 (feat. 샛별)
TTITLE5=수라의 노래
TTITLE6=본전치기
TTITLE7=영순위 (feat. 넋업샨)
TTITLE8=판게아 (feat. P-TYPE)
TTITLE9=술 푼 사슴
TTITLE10=그 날 이후 (feat. 채영)
TTITLE11=나는 소망한다
TTITLE12=불가사리
TTITLE13=생명수
TTITLE14=소리를 더 크게 (feat. Sean2Slow)
TTITLE15=12월 6일 (feat. LUCY)
TTITLE16=그리고 은하에 기도를
EXTD=
EXTT0=
EXTT1=
EXTT2=
EXTT3=
EXTT4=
EXTT5=
EXTT6=
EXTT7=
EXTT8=
EXTT9=
EXTT10=
EXTT11=
EXTT12=
EXTT13=
EXTT14=
EXTT15=
EXTT16=
PLAYORDER=
